<?xml version="1.0" standalone="no"?>
<!DOCTYPE svg PUBLIC "-//W3C//DTD SVG 20010904//EN"
 "http://www.w3.org/TR/2001/REC-SVG-20010904/DTD/svg10.dtd">
<svg version="1.0" xmlns="http://www.w3.org/2000/svg"
 width="260.000000pt" height="260.000000pt" viewBox="0 0 260.000000 260.000000"
 preserveAspectRatio="xMidYMid meet">
<metadata>
Created by potrace 1.11, written by Peter Selinger 2001-2013
</metadata>
<g transform="translate(0.000000,260.000000) scale(0.100000,-0.100000)"
fill="#000000" stroke="none">
<path d="M0 1721 c0 -870 0 -879 20 -884 11 -3 20 -10 20 -17 0 -6 -5 -8 -11
-4 -8 5 -10 -1 -7 -20 3 -14 -1 -34 -8 -43 -11 -14 -13 -95 -14 -384 l0 -365
1300 -3 1300 -2 0 691 c0 550 -3 690 -12 684 -7 -4 -22 -15 -33 -24 -11 -9
-40 -22 -65 -29 -25 -7 -54 -19 -65 -26 -11 -7 -40 -16 -64 -20 -24 -4 -58
-13 -76 -21 -23 -9 -81 -12 -213 -11 -100 1 -182 3 -182 5 0 1 32 33 70 71 41
40 70 78 70 89 0 11 3 29 6 39 4 10 -6 0 -22 -22 -46 -65 -86 -102 -147 -134
-66 -36 -76 -38 -73 -13 2 11 13 18 34 20 28 3 47 22 22 22 -5 0 -7 6 -4 14 6
16 -23 49 -37 41 -5 -4 -6 1 -3 9 3 9 15 16 26 16 10 0 16 5 13 10 -3 6 -14
10 -23 10 -10 0 -22 10 -27 22 -6 12 -17 24 -25 26 -13 5 -13 3 -1 -11 12 -15
11 -17 -3 -17 -9 0 -16 -5 -16 -11 0 -5 4 -8 9 -4 6 3 15 -3 20 -14 14 -24 14
-41 1 -21 -14 22 -80 20 -80 -2 0 -10 -3 -18 -8 -18 -4 0 -12 -10 -17 -22 -9
-21 -18 -23 -90 -26 -63 -2 -82 0 -91 13 -10 13 -16 14 -38 4 -25 -12 -25 -13
-7 -26 11 -7 34 -12 53 -11 56 3 147 -13 163 -29 12 -11 19 -12 29 -4 7 6 22
8 32 5 17 -6 17 -5 -1 10 -19 15 -18 15 13 5 37 -13 42 -35 10 -44 -13 -3 -33
-11 -46 -17 -16 -8 -35 -8 -71 0 -63 15 -76 8 -168 -85 -69 -71 -107 -96 -81
-54 7 11 17 19 22 18 6 -1 10 4 8 11 -1 7 5 15 13 18 8 4 15 16 15 28 0 15 3
17 9 8 6 -10 10 -7 15 12 3 14 11 26 17 26 6 0 7 -4 4 -10 -3 -5 -2 -10 3 -10
6 0 12 7 16 15 3 8 1 15 -4 15 -6 0 -10 7 -10 15 0 9 -13 18 -31 22 -20 4 -28
10 -25 19 6 17 -10 19 -20 3 -5 -8 -9 -8 -14 1 -4 6 -29 14 -56 17 -27 3 -51
7 -54 9 -8 8 22 22 36 17 25 -9 23 16 -3 36 -16 11 -34 26 -42 33 -8 6 -30 12
-49 12 -32 1 -38 6 -56 44 -23 47 -56 63 -89 43 -11 -7 -16 -8 -12 -2 3 6 2
11 -2 11 -5 0 -14 -9 -20 -19 -11 -17 -9 -20 10 -23 27 -4 31 -43 5 -43 -9 0
-20 -4 -24 -8 -4 -4 -18 -7 -31 -7 -13 0 -23 -4 -23 -10 0 -5 5 -10 11 -10 8
0 8 -4 0 -14 -8 -10 -9 -16 -1 -21 6 -3 8 -10 5 -15 -3 -5 4 -14 15 -20 23
-12 27 -50 6 -50 -8 0 -27 16 -42 35 -14 19 -31 35 -37 35 -6 0 -18 7 -26 15
-13 11 -25 12 -59 3 -54 -13 -69 -7 -90 39 -10 21 -29 58 -44 83 -14 25 -31
63 -37 85 -7 22 -20 60 -31 85 -34 84 -70 205 -70 238 0 21 -6 35 -16 39 -19
7 -34 -13 -34 -44 0 -13 -8 -24 -21 -28 -18 -6 -20 -12 -14 -39 4 -17 9 -88
11 -158 1 -70 8 -146 14 -169 6 -22 9 -43 6 -46 -7 -7 -106 76 -106 89 0 5 8
22 19 36 22 32 35 111 26 154 l-7 31 -13 -29 c-7 -16 -21 -38 -32 -49 -10 -11
-22 -28 -26 -37 -9 -25 -22 -22 -35 7 -13 28 -76 58 -110 52 -30 -6 -50 15
-64 68 -8 29 -20 47 -35 54 -18 8 -23 8 -23 -4 0 -7 5 -17 10 -20 6 -3 10 -20
10 -37 l0 -31 -23 21 c-22 20 -23 27 -16 85 4 35 17 87 27 117 11 30 23 76 27
103 6 48 24 65 26 25 5 -65 8 -90 13 -95 3 -4 6 10 6 30 0 31 3 37 21 37 15 0
19 -5 15 -15 -3 -9 0 -15 10 -15 10 0 14 6 11 18 -3 9 -8 39 -12 66 -6 43 -5
48 8 38 12 -11 19 -5 41 33 32 54 66 78 108 77 42 -1 64 12 72 42 10 41 59
106 84 113 16 4 52 -5 104 -27 71 -29 81 -30 96 -17 9 8 35 24 57 36 22 11 56
36 75 56 19 19 39 35 45 35 6 0 27 -11 47 -25 43 -29 53 -27 121 27 27 21 60
41 73 44 31 8 135 -19 195 -51 27 -14 53 -25 59 -25 6 0 38 28 73 63 36 37 76
68 97 74 26 8 -180 11 -787 12 l-823 1 0 -879z m190 439 c0 -16 -4 -30 -10
-30 -5 0 -10 14 -10 30 0 17 5 30 10 30 6 0 10 -13 10 -30z m233 -678 c3 -15
28 -56 56 -91 28 -35 51 -69 51 -75 0 -7 16 -30 35 -52 19 -21 35 -42 35 -46
0 -12 109 -64 170 -81 32 -10 60 -25 68 -37 7 -11 18 -20 25 -20 7 0 28 -16
47 -35 27 -28 42 -35 71 -35 25 0 68 -16 133 -50 53 -27 103 -50 112 -50 32 0
6 -25 -42 -42 -82 -28 -151 -23 -246 18 -237 103 -290 134 -370 215 -84 85
-104 116 -114 178 -5 34 -11 41 -29 41 -12 0 -25 3 -29 7 -3 4 -29 6 -56 4
-44 -2 -50 0 -50 18 0 11 -9 26 -19 34 -18 12 -19 17 -7 50 15 45 16 46 63 62
63 23 90 19 96 -13z m345 -163 c-2 -6 -7 -9 -10 -7 -4 2 -14 -6 -22 -17 -9
-11 -16 -15 -16 -10 0 6 -22 9 -52 7 -70 -5 -52 17 23 28 78 11 81 11 77 -1z
m932 7 c0 -3 -4 -8 -10 -11 -5 -3 -10 -1 -10 4 0 6 5 11 10 11 6 0 10 -2 10
-4z m-1355 -97 c-7 -30 -6 -31 19 -27 35 7 43 -10 52 -105 8 -87 23 -119 47
-99 10 9 31 11 64 7 54 -7 87 -25 103 -55 9 -18 6 -22 -27 -37 -21 -10 -40
-21 -43 -25 -3 -3 -33 -12 -68 -19 -44 -9 -62 -18 -62 -29 0 -8 -4 -21 -9 -29
-7 -11 -13 -3 -22 30 -7 24 -16 48 -20 53 -5 5 -4 17 2 27 5 10 7 30 3 43 -4
19 -1 26 16 31 26 8 21 30 -7 30 -35 0 -56 25 -50 62 3 19 0 53 -7 76 -12 39
-12 49 -1 85 9 26 16 10 10 -19z m1718 -45 c33 -8 81 -26 106 -39 25 -12 80
-31 121 -40 87 -21 126 -42 169 -91 35 -39 39 -54 14 -54 -34 -1 -95 -28 -110
-49 -18 -27 -31 -26 -103 4 -33 14 -73 25 -89 25 -17 0 -50 13 -74 30 -49 33
-69 38 -61 15 6 -14 -9 -17 -106 -17 -3 0 -22 2 -42 6 -35 6 -40 3 -107 -61
-57 -55 -71 -74 -69 -95 3 -34 -18 -73 -47 -86 -13 -6 -26 -20 -30 -31 -3 -12
-11 -21 -16 -21 -5 0 -9 -13 -9 -29 0 -17 -5 -33 -11 -37 -7 -4 -9 -21 -5 -43
4 -30 1 -42 -19 -65 -14 -16 -26 -27 -28 -25 -36 50 -42 70 -47 164 l-5 100
-33 3 c-18 2 -56 -3 -85 -11 -28 -8 -59 -15 -67 -15 -8 0 -30 -6 -49 -14 -26
-12 -30 -16 -16 -22 9 -3 27 -3 41 0 22 6 24 3 24 -31 0 -45 19 -43 35 4 14
42 40 58 53 34 9 -17 17 -161 13 -246 -1 -37 -1 -37 -24 -22 -13 8 -52 16 -88
18 -76 3 -97 18 -129 90 -22 49 -25 121 -6 136 6 5 22 11 36 14 14 2 2 5 -26
6 -36 1 -54 6 -58 16 -4 11 -20 15 -55 15 -36 0 -50 4 -55 16 -11 29 21 50
130 89 83 29 115 36 147 31 23 -3 79 -9 124 -12 73 -6 86 -4 116 15 41 25 47
37 56 110 3 33 12 57 21 62 8 4 54 25 101 47 47 21 102 54 122 71 60 53 131
63 240 35z m-776 -170 c-3 -3 -12 -4 -19 -1 -8 3 -5 6 6 6 11 1 17 -2 13 -5z
m-940 -146 c-2 -13 -4 -3 -4 22 0 25 2 35 4 23 2 -13 2 -33 0 -45z m1960 -166
c25 -14 66 -59 72 -80 6 -21 1 -451 -5 -474 -12 -40 -127 -44 -195 -6 -21 12
-39 28 -39 35 0 7 -4 13 -10 13 -5 0 -14 19 -21 43 -6 23 -14 47 -19 52 -4 6
-10 43 -12 82 -6 78 3 107 48 154 27 29 33 83 9 93 -22 8 -18 19 14 37 22 13
28 23 26 43 -3 25 -3 26 55 22 32 -2 66 -9 77 -14z m-1724 -226 c51 -28 68
-68 55 -130 -11 -52 -32 -71 -91 -81 l-37 -7 6 -63 c5 -48 3 -68 -9 -85 -15
-22 -15 -22 -33 15 -16 35 -16 38 -1 47 25 13 22 59 -4 65 -16 5 -19 11 -14
32 3 14 14 33 24 41 15 13 17 28 13 108 l-4 93 28 -7 c16 -4 46 -16 67 -28z
m934 -8 c-3 -8 -6 -5 -6 6 -1 11 2 17 5 13 3 -3 4 -12 1 -19z m-1097 -106 c0
-41 -3 -53 -10 -42 -13 20 -13 113 0 105 6 -3 10 -32 10 -63z m1530 33 c0 -8
-2 -15 -4 -15 -2 0 -6 7 -10 15 -3 8 -1 15 4 15 6 0 10 -7 10 -15z m-1783
-122 c13 -3 20 -10 16 -19 -6 -16 -33 -19 -33 -4 0 6 -3 9 -7 9 -21 -3 -33 3
-33 17 0 12 5 14 18 9 9 -4 27 -10 39 -12z m192 -158 c27 -20 52 -42 55 -51
16 -43 0 -38 -54 15 -55 55 -68 71 -55 71 3 0 27 -16 54 -35z"/>
<path d="M432 1390 c0 -14 2 -19 5 -12 2 6 2 18 0 25 -3 6 -5 1 -5 -13z"/>
<path d="M1555 759 l-40 -19 35 5 c19 3 39 10 44 15 19 19 0 18 -39 -1z"/>
<path d="M1894 2585 c11 -8 36 -18 55 -21 20 -4 49 -13 64 -21 37 -18 58 -11
53 19 -3 13 -5 26 -5 31 -1 4 -43 7 -93 7 -84 -1 -91 -2 -74 -15z"/>
<path d="M2100 2575 c0 -14 -5 -25 -12 -25 -6 0 -3 -7 8 -15 10 -8 33 -15 51
-15 25 0 41 -10 77 -51 26 -28 49 -63 52 -78 3 -14 12 -46 20 -71 8 -25 18
-75 21 -112 3 -38 9 -68 13 -68 3 0 34 11 68 25 33 13 92 30 131 36 l71 12 0
193 0 194 -250 0 -250 0 0 -25z"/>
<path d="M1840 2420 c0 -5 -7 -7 -15 -4 -10 4 -15 0 -15 -14 0 -11 -7 -25 -15
-32 -9 -8 -12 -17 -6 -24 4 -6 7 -19 6 -28 -7 -41 27 -25 38 17 2 11 5 1 6
-23 1 -34 7 -49 30 -70 16 -15 32 -42 36 -60 10 -46 40 -40 40 8 0 19 6 45 13
58 8 14 9 22 2 22 -5 0 -10 7 -10 15 0 19 -27 63 -67 108 -33 38 -43 44 -43
27z"/>
<path d="M1380 2379 c0 -11 4 -18 10 -14 5 3 7 12 3 20 -7 21 -13 19 -13 -6z"/>
<path d="M1556 2261 c-4 -5 4 -17 16 -26 76 -52 148 -95 161 -95 19 0 31 16
18 24 -5 4 -7 22 -4 41 5 31 3 35 -16 35 -18 0 -20 -4 -15 -25 7 -30 -6 -33
-24 -5 -7 12 -17 18 -22 15 -6 -4 -13 0 -16 8 -3 9 -13 13 -24 10 -10 -3 -29
3 -43 12 -15 10 -28 12 -31 6z"/>
<path d="M1420 2198 c33 -9 47 -11 128 -24 17 -3 43 -17 57 -32 14 -15 25 -21
25 -14 0 29 -48 62 -90 62 -22 0 -40 5 -40 10 0 6 -25 10 -57 9 -56 -1 -57 -1
-23 -11z"/>
<path d="M1208 2183 c7 -3 16 -2 19 1 4 3 -2 6 -13 5 -11 0 -14 -3 -6 -6z"/>
<path d="M1971 2158 c0 -35 25 -168 32 -175 16 -16 18 33 3 86 -9 31 -16 69
-16 84 0 15 -4 27 -10 27 -5 0 -10 -10 -9 -22z"/>
<path d="M1008 2156 c-10 -7 -18 -18 -18 -23 0 -5 -9 -27 -19 -49 -11 -21 -18
-41 -15 -43 8 -8 34 22 34 39 0 10 11 32 25 48 35 42 31 57 -7 28z"/>
<path d="M1057 2143 c-4 -3 -7 -11 -7 -17 0 -6 5 -5 12 2 6 6 9 14 7 17 -3 3
-9 2 -12 -2z"/>
<path d="M1249 2130 c-48 -14 -72 -31 -60 -43 7 -7 14 -7 23 1 7 5 28 14 46
19 17 4 32 12 33 18 1 13 -11 15 -42 5z"/>
<path d="M1355 2129 c-11 -17 1 -21 15 -4 8 9 8 15 2 15 -6 0 -14 -5 -17 -11z"/>
<path d="M1446 2132 c-3 -5 12 -17 33 -26 22 -8 54 -28 73 -44 18 -16 47 -32
65 -35 26 -5 33 -3 38 14 5 16 -2 30 -26 55 -27 28 -40 34 -73 33 -23 0 -55 2
-72 6 -18 4 -34 3 -38 -3z"/>
<path d="M930 2084 c0 -8 5 -12 10 -9 6 4 8 11 5 16 -9 14 -15 11 -15 -7z"/>
<path d="M2201 2028 c-34 -34 -64 -73 -67 -87 -8 -40 -19 -56 -42 -59 -12 -2
-24 -12 -27 -24 -5 -14 -13 -18 -26 -15 -12 3 -19 1 -17 -6 4 -23 -27 -57 -52
-57 -32 0 -57 35 -39 56 6 8 18 14 25 14 8 0 14 6 14 12 0 7 16 27 35 44 30
26 33 33 21 43 -11 10 -30 0 -98 -52 -170 -130 -234 -180 -268 -211 -37 -34
-90 -100 -90 -112 0 -4 -7 -16 -17 -26 -9 -10 -14 -20 -11 -23 2 -3 30 24 62
60 57 64 108 103 220 165 59 32 61 32 115 19 31 -7 64 -16 74 -22 35 -17 62 0
92 58 16 30 32 55 36 55 4 0 11 14 14 32 7 30 8 31 21 13 18 -24 22 -18 40 49
8 31 24 72 36 91 11 20 18 38 16 40 -3 3 -33 -23 -67 -57z"/>
<path d="M914 2014 c9 -8 16 -23 16 -32 1 -9 6 -27 13 -39 17 -30 150 -173
161 -173 5 0 0 10 -11 23 -11 12 -24 33 -28 47 -28 91 -101 190 -140 190 -24
0 -25 -1 -11 -16z"/>
<path d="M1286 2022 c-3 -5 8 -19 24 -31 17 -12 30 -29 30 -37 0 -12 6 -15 26
-10 14 4 32 2 39 -4 10 -8 15 -8 21 1 4 8 2 15 -5 17 -7 2 -27 17 -44 32 -18
15 -38 25 -45 23 -7 -3 -19 0 -26 7 -8 6 -17 7 -20 2z"/>
<path d="M843 1964 c-14 -28 -21 -34 -38 -28 -11 3 -38 9 -59 11 -34 5 -38 3
-32 -12 4 -12 0 -18 -14 -22 -32 -8 -31 -50 3 -126 13 -29 34 -75 47 -104 13
-29 26 -50 31 -48 8 6 0 45 -13 62 -11 14 -1 53 13 53 5 0 5 8 -1 20 -26 52
-27 56 -15 67 10 9 19 5 40 -17 30 -32 32 -39 13 -51 -10 -7 -10 -9 2 -9 18
-1 60 -34 60 -49 0 -17 23 -61 32 -61 4 0 3 8 -3 19 -7 10 -9 26 -5 36 5 14 9
15 21 5 10 -8 15 -9 15 -2 0 6 10 16 21 23 25 13 69 -2 69 -24 0 -7 8 -18 18
-26 13 -9 17 -22 14 -42 -4 -26 -2 -29 22 -27 14 1 26 6 26 12 0 5 12 -3 26
-18 15 -14 33 -26 40 -26 8 0 14 -4 14 -10 0 -5 11 -12 25 -16 14 -3 25 -9 25
-13 1 -16 49 -63 59 -57 8 5 8 11 -1 20 -32 33 -58 67 -58 76 0 5 -22 33 -50
62 -27 29 -50 56 -50 59 0 4 -9 9 -20 12 -11 3 -20 12 -20 21 0 9 -4 16 -8 16
-5 0 -34 24 -64 54 -54 51 -103 75 -111 52 -6 -17 -56 10 -65 35 -10 26 16 91
32 82 6 -4 5 1 -3 10 -18 23 -19 22 -38 -19z m34 -166 c-3 -8 -6 -5 -6 6 -1
11 2 17 5 13 3 -3 4 -12 1 -19z"/>
<path d="M1070 1980 c26 -21 60 -27 60 -10 0 13 -34 30 -62 30 l-23 0 25 -20z"/>
<path d="M1725 1990 c-10 -16 7 -31 23 -21 10 6 10 10 -2 20 -10 9 -16 9 -21
1z"/>
<path d="M1190 1956 c0 -15 58 -28 66 -15 6 10 -28 29 -50 29 -9 0 -16 -6 -16
-14z"/>
<path d="M158 1934 c-10 -10 2 -58 19 -74 14 -14 15 -11 10 24 -6 40 -19 61
-29 50z"/>
<path d="M1755 1929 c-11 -17 0 -20 21 -4 17 13 17 14 2 15 -9 0 -20 -5 -23
-11z"/>
<path d="M1435 1861 c-43 -8 -95 -32 -135 -64 l-25 -19 24 7 c13 4 29 8 35 9
6 1 29 11 51 23 22 11 52 23 68 27 15 3 27 11 27 16 0 6 -1 9 -2 9 -2 -1 -21
-5 -43 -8z"/>
<path d="M2199 1778 c-44 -54 -58 -79 -59 -102 0 -13 14 0 40 36 35 49 66 108
56 108 -1 0 -18 -19 -37 -42z"/>
<path d="M2463 1759 c-7 -7 -13 -17 -13 -22 0 -6 -8 -16 -17 -23 -10 -7 -13
-13 -8 -13 19 0 57 38 53 54 -2 13 -5 14 -15 4z"/>
<path d="M820 1740 c-13 -8 -12 -10 3 -10 9 0 17 5 17 10 0 12 -1 12 -20 0z"/>
<path d="M2360 1664 c0 -9 5 -14 12 -12 18 6 21 28 4 28 -9 0 -16 -7 -16 -16z"/>
<path d="M1070 1575 c0 -8 5 -15 10 -15 6 0 10 7 10 15 0 8 -4 15 -10 15 -5 0
-10 -7 -10 -15z"/>
<path d="M1080 1535 c0 -8 7 -15 16 -15 14 0 14 3 4 15 -7 8 -14 15 -16 15 -2
0 -4 -7 -4 -15z"/>
<path d="M1850 1360 c0 -13 18 -22 24 -11 3 5 -1 11 -9 15 -8 3 -15 1 -15 -4z"/>
</g>
</svg>
