<?xml version="1.0" encoding="UTF-8"?>
<svg xmlns="http://www.w3.org/2000/svg" xmlns:xlink="http://www.w3.org/1999/xlink" width="100pt" height="100pt" viewBox="0 0 100 100" version="1.1">
<g id="surface1">
<path style=" stroke:none;fill-rule:nonzero;fill:rgba(104,133,75,.6);fill-opacity:1;" d="M 10.9375 12.5 C 8.351563 12.5 6.25 14.601563 6.25 17.1875 L 6.25 82.8125 C 6.25 85.398438 8.351563 87.5 10.9375 87.5 L 89.0625 87.5 C 91.648438 87.5 93.75 85.398438 93.75 82.8125 L 93.75 17.1875 C 93.75 14.601563 91.648438 12.5 89.0625 12.5 Z M 10.9375 15.625 L 89.0625 15.625 C 89.925781 15.625 90.625 16.328125 90.625 17.1875 L 90.625 82.8125 C 90.625 83.671875 89.925781 84.375 89.0625 84.375 L 10.9375 84.375 C 10.074219 84.375 9.375 83.671875 9.375 82.8125 L 9.375 31.25 L 73.4375 31.25 C 74.300781 31.25 75 30.550781 75 29.6875 C 75 28.824219 74.300781 28.125 73.4375 28.125 L 9.375 28.125 L 9.375 17.1875 C 9.375 16.328125 10.074219 15.625 10.9375 15.625 Z M 15.625 18.75 C 14.761719 18.75 14.0625 19.449219 14.0625 20.3125 L 14.0625 23.4375 C 14.0625 24.300781 14.761719 25 15.625 25 C 16.488281 25 17.1875 24.300781 17.1875 23.4375 L 17.1875 20.3125 C 17.1875 19.449219 16.488281 18.75 15.625 18.75 Z M 23.4375 18.75 C 22.574219 18.75 21.875 19.449219 21.875 20.3125 L 21.875 23.4375 C 21.875 24.300781 22.574219 25 23.4375 25 C 24.300781 25 25 24.300781 25 23.4375 L 25 20.3125 C 25 19.449219 24.300781 18.75 23.4375 18.75 Z M 31.25 18.75 C 30.386719 18.75 29.6875 19.449219 29.6875 20.3125 L 29.6875 23.4375 C 29.6875 24.300781 30.386719 25 31.25 25 C 32.113281 25 32.8125 24.300781 32.8125 23.4375 L 32.8125 20.3125 C 32.8125 19.449219 32.113281 18.75 31.25 18.75 Z M 39.0625 18.75 C 38.199219 18.75 37.5 19.449219 37.5 20.3125 L 37.5 23.4375 C 37.5 24.300781 38.199219 25 39.0625 25 C 39.925781 25 40.625 24.300781 40.625 23.4375 L 40.625 20.3125 C 40.625 19.449219 39.925781 18.75 39.0625 18.75 Z M 46.875 18.75 C 46.011719 18.75 45.3125 19.449219 45.3125 20.3125 L 45.3125 23.4375 C 45.3125 24.300781 46.011719 25 46.875 25 C 47.738281 25 48.4375 24.300781 48.4375 23.4375 L 48.4375 20.3125 C 48.4375 19.449219 47.738281 18.75 46.875 18.75 Z M 54.6875 18.75 C 53.824219 18.75 53.125 19.449219 53.125 20.3125 L 53.125 23.4375 C 53.125 24.300781 53.824219 25 54.6875 25 C 55.550781 25 56.25 24.300781 56.25 23.4375 L 56.25 20.3125 C 56.25 19.449219 55.550781 18.75 54.6875 18.75 Z M 62.5 18.75 C 61.636719 18.75 60.9375 19.449219 60.9375 20.3125 L 60.9375 23.4375 C 60.9375 24.300781 61.636719 25 62.5 25 C 63.363281 25 64.0625 24.300781 64.0625 23.4375 L 64.0625 20.3125 C 64.0625 19.449219 63.363281 18.75 62.5 18.75 Z M 70.3125 18.75 C 69.449219 18.75 68.75 19.449219 68.75 20.3125 L 68.75 23.4375 C 68.75 24.300781 69.449219 25 70.3125 25 C 71.175781 25 71.875 24.300781 71.875 23.4375 L 71.875 20.3125 C 71.875 19.449219 71.175781 18.75 70.3125 18.75 Z M 78.125 18.75 C 77.261719 18.75 76.5625 19.449219 76.5625 20.3125 L 76.5625 23.4375 C 76.5625 24.300781 77.261719 25 78.125 25 C 78.988281 25 79.6875 24.300781 79.6875 23.4375 L 79.6875 20.3125 C 79.6875 19.449219 78.988281 18.75 78.125 18.75 Z M 85.9375 18.75 C 85.074219 18.75 84.375 19.449219 84.375 20.3125 L 84.375 23.4375 C 84.375 24.300781 85.074219 25 85.9375 25 C 86.800781 25 87.5 24.300781 87.5 23.4375 L 87.5 20.3125 C 87.5 19.449219 86.800781 18.75 85.9375 18.75 Z M 79.6875 28.125 C 78.824219 28.125 78.125 28.824219 78.125 29.6875 C 78.125 30.550781 78.824219 31.25 79.6875 31.25 L 85.9375 31.25 C 86.800781 31.25 87.5 30.550781 87.5 29.6875 C 87.5 28.824219 86.800781 28.125 85.9375 28.125 Z M 54.445313 37.515625 C 53.84375 37.609375 53.328125 38.054688 53.171875 38.683594 L 43.796875 76.183594 C 43.585938 77.023438 44.09375 77.871094 44.933594 78.078125 C 45.0625 78.113281 45.191406 78.128906 45.316406 78.128906 C 46.015625 78.128906 46.652344 77.652344 46.828125 76.945313 L 56.203125 39.445313 C 56.414063 38.605469 55.902344 37.753906 55.066406 37.546875 C 54.855469 37.492188 54.648438 37.484375 54.445313 37.515625 Z M 35.9375 46.875 C 35.539063 46.875 35.136719 47.027344 34.832031 47.332031 L 25.457031 56.707031 C 24.847656 57.320313 24.847656 58.304688 25.457031 58.917969 L 34.832031 68.292969 C 35.136719 68.597656 35.539063 68.75 35.9375 68.75 C 36.335938 68.75 36.738281 68.597656 37.042969 68.292969 C 37.652344 67.679688 37.652344 66.695313 37.042969 66.082031 L 28.773438 57.8125 L 37.042969 49.542969 C 37.652344 48.929688 37.652344 47.945313 37.042969 47.332031 C 36.738281 47.027344 36.335938 46.875 35.9375 46.875 Z M 64.0625 46.875 C 63.664063 46.875 63.261719 47.027344 62.957031 47.332031 C 62.347656 47.945313 62.347656 48.929688 62.957031 49.542969 L 71.226563 57.8125 L 62.957031 66.082031 C 62.347656 66.695313 62.347656 67.679688 62.957031 68.292969 C 63.261719 68.597656 63.664063 68.75 64.0625 68.75 C 64.460938 68.75 64.863281 68.597656 65.167969 68.292969 L 74.542969 58.917969 C 75.152344 58.304688 75.152344 57.320313 74.542969 56.707031 L 65.167969 47.332031 C 64.863281 47.027344 64.460938 46.875 64.0625 46.875 Z "/>
</g>
</svg>
