<?xml version="1.0" encoding="UTF-8"?>
<svg xmlns="http://www.w3.org/2000/svg" xmlns:xlink="http://www.w3.org/1999/xlink" width="50pt" height="50pt" viewBox="0 0 50 50" version="1.1">
<g id="surface1">
<path style=" stroke:none;fill-rule:nonzero;fill:#383535;fill-opacity:1;" d="M 39.894531 8 C 39.59375 8 39.300781 8.152344 39.109375 8.390625 C 39.085938 8.425781 39.054688 8.453125 39.035156 8.492188 L 30.605469 22.707031 C 30.59375 22.734375 30.578125 22.757813 30.574219 22.785156 C 30.371094 23.863281 30.777344 25.011719 31.683594 25.921875 C 32.914063 27.164063 35.054688 28.027344 36.890625 28.027344 C 37.1875 28.027344 37.472656 28.003906 37.734375 27.953125 C 38.019531 27.902344 38.25 27.730469 38.402344 27.484375 L 47.871094 9.492188 L 47.886719 9.46875 C 47.886719 9.457031 47.886719 9.449219 47.890625 9.441406 C 48.027344 9.171875 48.023438 8.84375 47.894531 8.570313 C 47.878906 8.542969 47.871094 8.511719 47.855469 8.484375 C 47.839844 8.457031 47.816406 8.433594 47.796875 8.40625 C 47.609375 8.160156 47.308594 8 47 8 Z M 28.53125 23.402344 C 24.109375 24.632813 22.863281 28.472656 21.761719 31.933594 C 20.660156 35.390625 19.613281 38.652344 15.8125 40 L 3 40 C 2.640625 39.996094 2.304688 40.183594 2.121094 40.496094 C 1.941406 40.808594 1.941406 41.191406 2.121094 41.503906 C 2.304688 41.816406 2.640625 42.003906 3 42 L 16 42 C 29.433594 42 37.050781 39.996094 37.894531 29.941406 C 37.570313 29.988281 37.238281 30.027344 36.890625 30.027344 C 34.527344 30.027344 31.867188 28.941406 30.265625 27.332031 C 29.148438 26.207031 28.546875 24.816406 28.53125 23.402344 Z "/>
</g>
</svg>
